<svg id="Layer_2" data-name="Layer 2" xmlns="http://www.w3.org/2000/svg" viewBox="0 0 487.46 430.75"><defs><style>.cls-1{fill:#80ccfc;}.cls-2{fill:none;stroke:#80ccfc;stroke-miterlimit:10;stroke-width:10px;}</style></defs><polygon class="cls-1" points="304.5 353 185.5 353 185.5 0 195.5 0 195.5 343 294.5 343 294.5 0 304.5 0 304.5 353"/><path class="cls-2" d="M654.5,610" transform="translate(-355 -610)"/><path class="cls-2" d="M597,610" transform="translate(-355 -610)"/><path class="cls-2" d="M597,610" transform="translate(-355 -610)"/><path class="cls-2" d="M545.5,610" transform="translate(-355 -610)"/><path class="cls-1" d="M550.32,1001.86a11.36,11.36,0,0,1-2.68,7.82,13.43,13.43,0,0,1-7.61,4.07v.27q6,.76,8.92,3.83a11.26,11.26,0,0,1,2.91,8.07q0,7.14-5,11t-14.08,3.84a41.68,41.68,0,0,1-7.26-.59,24.6,24.6,0,0,1-6.41-2.11v-5.4a32.45,32.45,0,0,0,13.88,3.28q12.94,0,13-10.15,0-9.09-14.29-9.09h-4.92v-4.89h5q5.85,0,9.26-2.58a8.46,8.46,0,0,0,3.42-7.16,7.06,7.06,0,0,0-2.51-5.74,10.35,10.35,0,0,0-6.82-2.09,21.15,21.15,0,0,0-6.19.89,28.4,28.4,0,0,0-6.63,3.28l-2.87-3.82a24.07,24.07,0,0,1,7.1-3.82,25.77,25.77,0,0,1,8.45-1.38q7.29,0,11.32,3.33A11.22,11.22,0,0,1,550.32,1001.86Z" transform="translate(-355 -610)"/><path class="cls-1" d="M609.73,1040.07V1015.7c0-3-.64-5.22-1.92-6.72s-3.26-2.24-5.95-2.24q-5.29,0-7.82,3c-1.69,2-2.53,5.15-2.53,9.36v20.92h-5.68V1015.7c0-3-.63-5.22-1.91-6.72s-3.27-2.24-6-2.24q-5.34,0-7.81,3.2t-2.48,10.48v19.65H562v-37.46h4.61l.92,5.13h.28a11.14,11.14,0,0,1,4.53-4.28,13.87,13.87,0,0,1,6.54-1.54c5.86,0,9.68,2.12,11.49,6.36h.27a12,12,0,0,1,4.85-4.65,15.19,15.19,0,0,1,7.25-1.71q6.36,0,9.52,3.27t3.16,10.44v24.44Z" transform="translate(-355 -610)"/><path class="cls-1" d="M674.84,1040.07V1015.7c0-3-.64-5.22-1.92-6.72s-3.25-2.24-5.94-2.24q-5.31,0-7.83,3c-1.69,2-2.53,5.15-2.53,9.36v20.92H651V1015.7c0-3-.64-5.22-1.92-6.72s-3.27-2.24-6-2.24c-3.55,0-6.16,1.07-7.81,3.2s-2.48,5.62-2.48,10.48v19.65h-5.67v-37.46h4.61l.93,5.13h.27a11.14,11.14,0,0,1,4.53-4.28,13.9,13.9,0,0,1,6.54-1.54q8.79,0,11.49,6.36h.27a12,12,0,0,1,4.85-4.65,15.19,15.19,0,0,1,7.25-1.71q6.36,0,9.52,3.27t3.16,10.44v24.44Z" transform="translate(-355 -610)"/><rect class="cls-1" x="1" y="400.5" width="135" height="5"/><rect class="cls-1" x="0.5" y="229.5" width="5" height="175"/><rect class="cls-1" y="229" width="173.5" height="5"/><polygon class="cls-1" points="182.74 232.37 167.5 217.13 167.5 246.63 182.74 232.37"/><path class="cls-1" d="M520,862.39v-41.3l21.34,21.34Zm5-29.22v17.7l9.15-8.56Z" transform="translate(-355 -610)"/><rect class="cls-1" x="349.96" y="400.48" width="135" height="5"/><rect class="cls-1" x="482.46" y="231.5" width="5" height="172"/><rect class="cls-1" x="313.46" y="228.98" width="173.5" height="5"/><polygon class="cls-1" points="304.22 232.36 319.46 217.11 319.46 246.61 304.22 232.36"/><path class="cls-1" d="M677,862.38l-21.34-20L677,821.08ZM662.81,842.3l9.15,8.55v-17.7Z" transform="translate(-355 -610)"/></svg>