<svg id="Layer_1" data-name="Layer 1" xmlns="http://www.w3.org/2000/svg" viewBox="0 0 1198.67 906.27"><defs><style>.cls-1{fill:#80ccfc;}</style></defs><path class="cls-1" d="M230.66,666.29V567.78h-103c-39.87,0-72.33-34.52-72.33-76.95V268.7c0-42.44,32.44-77,72.33-77H588.27c39.87,0,72.3,34.54,72.3,77V490.83c0,42.43-32.43,76.95-72.3,76.95v54c69.64,0,126.3-58.75,126.3-131V268.7c0-72.21-56.65-131-126.3-131H127.66C58,137.73,1.33,196.49,1.33,268.7V490.83c0,72.21,56.67,131,126.33,131h49V717.5a36,36,0,0,0,35.76,35.42,33.93,33.93,0,0,0,26-12.14L339,621.8H439.3v-54H313.91Z" transform="translate(-1.33 -137.73)"/><path class="cls-1" d="M1073.68,428.82H761.84v54h311.84c39.87,0,72.32,34.54,72.32,77V781.9c0,42.44-32.44,77-72.32,77h-103v98.56L887.43,858.9H613.05c-39.86,0-72.3-34.53-72.3-77V559.81c0-42.44,32.44-77,72.3-77v-54c-69.63,0-126.31,58.77-126.31,131V781.91c0,72.25,56.66,131,126.31,131H862.36l100.56,119a34,34,0,0,0,26,12.06,35.14,35.14,0,0,0,12.18-2.19,35.75,35.75,0,0,0,23.63-33.25V912.88h49c69.66,0,126.32-58.75,126.32-131V559.81C1200,487.59,1143.34,428.82,1073.68,428.82Z" transform="translate(-1.33 -137.73)"/><path class="cls-1" d="M318.76,227.06,223.24,478.73h56l19.74-56h94.11l19,56H469.6L375.49,227.06Zm-5.27,154.4,32.78-92.35h.7l31.72,92.35Z" transform="translate(-1.33 -137.73)"/><path class="cls-1" d="M722.23,727.7c0,27.59,17.64,45.49,46.39,45.49,34.55-.73,68.73-22.66,79.85-32.56s41.08-44.36,54.31-71.63c16.73,7.9,24.66,21.14,24.66,35.79,0,31.71-30.54,50.1-79.27,55.68l23.64,32.74c76.33-10,102.3-42.05,102.3-89,0-39.65-25-63.73-56.94-74.27.59-2.91,1.66-6,2.26-8.89l-43.38-7.73c-.29,4.39-1.17,5.19-2,9.59a174.2,174.2,0,0,0-38.46,2.63c0-7.93.29-29.08.59-36.7,36.11-1.46,71.61-4.38,104.49-9.38l-3.82-42.84a691,691,0,0,1-98.33,12c.86-8.53,2.07-32.64,2.07-32.64l-45.81-3.49c-.6,11.75-.86,25.55-1.45,37.57-20.28.29-44.31.29-57,0l2,41.4h5c12,0,31.73-.61,49.36-1.19,0,11.43.28,36.1.58,47.26C751.89,654.87,722.23,686.9,722.23,727.7Zm138-66.35a156.29,156.29,0,0,1-21.72,32.86c-1.2-9.69-1.78-19.66-2.36-30.22C839.35,663.41,852.27,661.35,860.21,661.35Zm-64.59,17c1.47,16.44,3.24,32.29,5.87,46.67-7.62,3.82-14.94,6.17-21.73,6.47-14.69.59-14.69-8.79-14.69-12.92C765.08,703,777.12,688.66,795.62,678.38Z" transform="translate(-1.33 -137.73)"/></svg>