<svg id="Layer_3" data-name="Layer 3" xmlns="http://www.w3.org/2000/svg" viewBox="0 0 1012.35 1200"><defs><style>.cls-1{fill:#80ccfc;}</style></defs><path class="cls-1" d="M109.22,581.19h974.85a18.73,18.73,0,0,0,18.75-18.75V18.75A18.73,18.73,0,0,0,1084.07,0H109.22A18.73,18.73,0,0,0,90.47,18.75V562.44A18.73,18.73,0,0,0,109.22,581.19ZM128,37.5h937.35V543.69H128Z" transform="translate(-90.47 0)"/><path class="cls-1" d="M90.47,1181.25A18.73,18.73,0,0,0,109.22,1200h974.85a18.73,18.73,0,0,0,18.75-18.75V637.56a18.73,18.73,0,0,0-18.75-18.75H109.22a18.73,18.73,0,0,0-18.75,18.75ZM128,656.31h937.35V1162.5H128Z" transform="translate(-90.47 0)"/><path class="cls-1" d="M428.25,224.94A56.25,56.25,0,1,0,372,168.69,56.32,56.32,0,0,0,428.25,224.94Zm0-75a18.75,18.75,0,1,1-18.75,18.75A18.76,18.76,0,0,1,428.25,149.94Z" transform="translate(-90.47 0)"/><path class="cls-1" d="M859.07,452.12a17,17,0,0,0,.39-1.91c0-.55-.28-1-.32-1.54a17.92,17.92,0,0,0-.78-3.92,20.6,20.6,0,0,0-1.2-3.09c-.3-.55-.34-1.18-.68-1.73L687.73,177.75a.91.91,0,0,0-.17-.17,17.65,17.65,0,0,0-2.7-2.77,19.53,19.53,0,0,0-2.57-2.5c-.09-.05-.13-.13-.2-.18a17.66,17.66,0,0,0-2.74-1.07,18.72,18.72,0,0,0-3.79-1.48,16.46,16.46,0,0,0-3.78-.08,17,17,0,0,0-3.42.08,17.91,17.91,0,0,0-3.93,1.51,17.54,17.54,0,0,0-2.65,1c-.07.05-.11.15-.2.2a19.49,19.49,0,0,0-2.46,2.36,19.46,19.46,0,0,0-2.79,2.89c-.06.06-.14.1-.17.17L568.33,314.18l-40.07-61.65c0-.06-.09-.08-.13-.14a21.35,21.35,0,0,0-2.49-2.55,20.47,20.47,0,0,0-2.78-2.73s-.05-.08-.11-.12a20.53,20.53,0,0,0-2.29-.9,18.37,18.37,0,0,0-4.33-1.72,80.14,80.14,0,0,0-7.16,0,18.37,18.37,0,0,0-4.33,1.72,18.76,18.76,0,0,0-2.29.9c-.06,0-.07.1-.11.12a17.5,17.5,0,0,0-2.78,2.73,21.35,21.35,0,0,0-2.49,2.55c0,.06-.09.08-.13.14L375,440a11.9,11.9,0,0,0-.58,1.5,17.23,17.23,0,0,0-1.37,3.45,19.07,19.07,0,0,0-.75,3.71c0,.54-.32,1-.32,1.56s.32,1.2.38,1.85a18.11,18.11,0,0,0,2.14,7,15.55,15.55,0,0,0,2,2.86,17.87,17.87,0,0,0,2.73,2.7c.51.4.81,1,1.35,1.32s1.3.56,1.95.9a19.47,19.47,0,0,0,1.8.82,19,19,0,0,0,6.47,1.3h450a18.58,18.58,0,0,0,2.1-.42,18.27,18.27,0,0,0,3.85-.78,18.8,18.8,0,0,0,2.92-1.33c.41-.23.86-.32,1.26-.57s.56-.63.93-.9a18.75,18.75,0,0,0,3.47-3.37,17.28,17.28,0,0,0,1.52-2.27,18.26,18.26,0,0,0,1.61-3.71A19.58,19.58,0,0,0,859.07,452.12ZM583.71,359.68c.22-.32.39-.62.6-1L672,222.54,806.44,431.47h-269ZM492.9,431.47H425.27l87.32-134.3,33.54,51.62Z" transform="translate(-90.47 0)"/><path class="cls-1" d="M240.41,825a56.25,56.25,0,1,0-56.25-56.25A56.32,56.32,0,0,0,240.41,825Zm0-75a18.75,18.75,0,1,1-18.75,18.75A18.76,18.76,0,0,1,240.41,750Z" transform="translate(-90.47 0)"/><path class="cls-1" d="M503,750h-150a18.75,18.75,0,0,0,0,37.5H503a18.75,18.75,0,1,0,0-37.5Z" transform="translate(-90.47 0)"/><path class="cls-1" d="M502.93,956.29h-300a18.75,18.75,0,1,0,0,37.5h300a18.75,18.75,0,0,0,0-37.5Z" transform="translate(-90.47 0)"/><path class="cls-1" d="M502.93,1012.54h-300a18.75,18.75,0,1,0,0,37.5h300a18.75,18.75,0,0,0,0-37.5Z" transform="translate(-90.47 0)"/><path class="cls-1" d="M352.91,1068.79h-150a18.75,18.75,0,1,0,0,37.5h150a18.75,18.75,0,1,0,0-37.5Z" transform="translate(-90.47 0)"/><path class="cls-1" d="M746.61,993.79H990.34a18.75,18.75,0,1,0,0-37.5H746.61a18.75,18.75,0,0,0,0,37.5Z" transform="translate(-90.47 0)"/><path class="cls-1" d="M746.61,1050H990.34a18.75,18.75,0,1,0,0-37.5H746.61a18.75,18.75,0,0,0,0,37.5Z" transform="translate(-90.47 0)"/><path class="cls-1" d="M990.47,1068.79H746.61a18.75,18.75,0,0,0,0,37.5H990.47a18.75,18.75,0,1,0,0-37.5Z" transform="translate(-90.47 0)"/><path class="cls-1" d="M690.9,956.29h-.21a18.86,18.86,0,1,0,.21,0Z" transform="translate(-90.47 0)"/><path class="cls-1" d="M690.9,1012.54h-.21a18.86,18.86,0,1,0,.21,0Z" transform="translate(-90.47 0)"/><path class="cls-1" d="M690.9,1068.79h-.21a18.86,18.86,0,1,0,.21,0Z" transform="translate(-90.47 0)"/></svg>