<svg id="Layer_4" data-name="Layer 4" xmlns="http://www.w3.org/2000/svg" viewBox="0 0 1191.03 800.22"><defs><style>.cls-1{fill:#80ccfc;}</style></defs><path class="cls-1" d="M1172.42,738.85a18.59,18.59,0,0,1-18.61-18.61V255H521.07V701.63a18.61,18.61,0,1,1-37.21,0V236.39a18.59,18.59,0,0,1,18.61-18.61h670A18.59,18.59,0,0,1,1191,236.39V720.24A18.59,18.59,0,0,1,1172.42,738.85Z" transform="translate(0 -217.78)"/><path class="cls-1" d="M502.47,478.32H335a18.61,18.61,0,0,1,0-37.22H502.47a18.61,18.61,0,0,1,0,37.22Z" transform="translate(0 -217.78)"/><path class="cls-1" d="M167.49,627.19a18.61,18.61,0,0,1-12.36-32.51L322.62,445.8a18.6,18.6,0,1,1,24.71,27.81L179.85,622.49A18.51,18.51,0,0,1,167.49,627.19Z" transform="translate(0 -217.78)"/><path class="cls-1" d="M483.86,943.56H167.49a18.61,18.61,0,0,1,0-37.22H483.86a18.61,18.61,0,1,1,0,37.22Z" transform="translate(0 -217.78)"/><path class="cls-1" d="M502.47,720.24a18.61,18.61,0,0,1-12.08-32.77L625.55,572.26a18.6,18.6,0,0,1,24.14,28.3L514.52,715.78A18.36,18.36,0,0,1,502.47,720.24Z" transform="translate(0 -217.78)"/><path class="cls-1" d="M483.84,943.56a18.61,18.61,0,0,1-13.18-31.75l242-242.87A18.6,18.6,0,1,1,739,695.21L497,938.09A18.49,18.49,0,0,1,483.84,943.56Z" transform="translate(0 -217.78)"/><path class="cls-1" d="M1172.42,738.85H687.76a18.61,18.61,0,0,1,0-37.22h484.66a18.61,18.61,0,0,1,0,37.22Z" transform="translate(0 -217.78)"/><path class="cls-1" d="M167.49,962.17a18.59,18.59,0,0,1-18.61-18.61V571.36a18.61,18.61,0,1,1,37.22,0v372.2A18.59,18.59,0,0,1,167.49,962.17Z" transform="translate(0 -217.78)"/><path class="cls-1" d="M167.49,590H111.66a18.61,18.61,0,1,1,0-37.22h55.83a18.61,18.61,0,0,1,0,37.22Z" transform="translate(0 -217.78)"/><path class="cls-1" d="M167.49,962.17H111.66a18.61,18.61,0,0,1,0-37.22h55.83a18.61,18.61,0,1,1,0,37.22Z" transform="translate(0 -217.78)"/><path class="cls-1" d="M111.66,1018h-93a18.61,18.61,0,1,1,0-37.22H93.05V534.14H18.61a18.61,18.61,0,1,1,0-37.21h93.05a18.59,18.59,0,0,1,18.61,18.6V999.39A18.59,18.59,0,0,1,111.66,1018Z" transform="translate(0 -217.78)"/><path class="cls-1" d="M725.78,700.68a18.61,18.61,0,0,1-13.28-31.63,46.53,46.53,0,0,0-63-68.36,18.6,18.6,0,0,1-23.84-28.56,83.74,83.74,0,0,1,113.37,123A18.48,18.48,0,0,1,725.78,700.68Z" transform="translate(0 -217.78)"/><path class="cls-1" d="M789.88,827.55a18.6,18.6,0,0,1-13.44-31.47l84.77-88.7a18.61,18.61,0,0,1,26.89,25.74l-84.77,88.7A18.64,18.64,0,0,1,789.88,827.55Z" transform="translate(0 -217.78)"/><path class="cls-1" d="M744.75,850.51a18.61,18.61,0,1,1,0-37.22c11.22,0,16.75-2.31,32-17.51a18.6,18.6,0,1,1,26.31,26.31C784.61,840.52,769.85,850.51,744.75,850.51Z" transform="translate(0 -217.78)"/><path class="cls-1" d="M696.49,827.55a18.6,18.6,0,0,1-13.44-31.47l84.77-88.7a18.61,18.61,0,0,1,26.89,25.74L710,821.82A18.71,18.71,0,0,1,696.49,827.55Z" transform="translate(0 -217.78)"/><path class="cls-1" d="M651.34,850.51a18.61,18.61,0,0,1,0-37.22c11.23,0,16.75-2.31,32-17.51a18.61,18.61,0,1,1,26.32,26.31C691.22,840.52,676.47,850.51,651.34,850.51Z" transform="translate(0 -217.78)"/><path class="cls-1" d="M744.75,850.51H576.53a18.61,18.61,0,1,1,0-37.22H744.75a18.61,18.61,0,1,1,0,37.22Z" transform="translate(0 -217.78)"/><path class="cls-1" d="M697.87,496.93a83.75,83.75,0,1,1,83.74-83.75A83.86,83.86,0,0,1,697.87,496.93Zm0-130.27a46.53,46.53,0,1,0,46.52,46.52A46.57,46.57,0,0,0,697.87,366.66Z" transform="translate(0 -217.78)"/><path class="cls-1" d="M1042.15,385.27H856.05a18.61,18.61,0,1,1,0-37.22h186.1a18.61,18.61,0,0,1,0,37.22Z" transform="translate(0 -217.78)"/><path class="cls-1" d="M1042.15,552.75H911.88a18.61,18.61,0,0,1,0-37.22h130.27a18.61,18.61,0,0,1,0,37.22Z" transform="translate(0 -217.78)"/><path class="cls-1" d="M949.1,441.1H856.05a18.61,18.61,0,1,1,0-37.22H949.1a18.61,18.61,0,0,1,0,37.22Z" transform="translate(0 -217.78)"/><path class="cls-1" d="M856.61,552.75a18.61,18.61,0,0,1-.2-37.22h.2a18.61,18.61,0,0,1,0,37.22Z" transform="translate(0 -217.78)"/><path class="cls-1" d="M1042.15,627.19H911.88a18.61,18.61,0,0,1,0-37.22h130.27a18.61,18.61,0,0,1,0,37.22Z" transform="translate(0 -217.78)"/><path class="cls-1" d="M856.61,627.19a18.61,18.61,0,0,1-.2-37.22h.2a18.61,18.61,0,0,1,0,37.22Z" transform="translate(0 -217.78)"/></svg>